<svg width="91" height="28" viewBox="0 0 91 28" fill="none" xmlns="http://www.w3.org/2000/svg">
<g clip-path="url(#clip0_3524_3815)">
<path fill-rule="evenodd" clip-rule="evenodd" d="M0 8.48438H3.29875V15.072C4.3481 14.4728 5.53441 14.1593 6.74074 14.1624C10.4633 14.1624 13.4815 17.0702 13.4815 20.6567C13.4815 24.2433 10.4633 27.151 6.74074 27.151C5.53441 27.1542 4.34808 26.8407 3.29875 26.2415V27.0136H0V8.48438ZM6.74074 17.3409C4.83985 17.3409 3.29875 18.8257 3.29875 20.6567C3.29875 22.4886 4.83985 23.9726 6.74074 23.9726C8.64163 23.9726 10.1827 22.4878 10.1827 20.6567C10.1827 18.8257 8.64163 17.3409 6.74074 17.3409ZM33.7037 14.4238C35.4915 14.4238 37.206 15.1389 38.4701 16.4119C39.7343 17.6849 40.4444 19.4114 40.4444 21.2116C40.4444 23.0119 39.7343 24.7384 38.4701 26.0114C37.206 27.2844 35.4915 27.9995 33.7037 27.9995C31.9159 27.9995 30.2014 27.2844 28.9373 26.0114C27.6731 24.7384 26.963 23.0119 26.963 21.2116C26.963 19.4114 27.6731 17.6849 28.9373 16.4119C30.2014 15.1389 31.9159 14.4238 33.7037 14.4238ZM33.7037 17.7456C32.7908 17.7456 31.9153 18.1108 31.2698 18.7608C30.6244 19.4108 30.2617 20.2924 30.2617 21.2116C30.2617 22.1309 30.6244 23.0125 31.2698 23.6625C31.9153 24.3125 32.7908 24.6777 33.7037 24.6777C34.6166 24.6777 35.4921 24.3125 36.1376 23.6625C36.7831 23.0125 37.1457 22.1309 37.1457 21.2116C37.1457 20.2924 36.7831 19.4108 36.1376 18.7608C35.4921 18.1108 34.6166 17.7456 33.7037 17.7456ZM75.8333 14.4238C74.7961 14.4241 73.7729 14.6655 72.8435 15.1291C71.914 15.5928 71.1033 16.2662 70.4745 17.0969C69.8458 17.9276 69.4159 18.8932 69.2183 19.9186C69.0207 20.9439 69.0607 22.0014 69.3353 23.0086C69.6099 24.0159 70.1116 24.9457 70.8014 25.7258C71.4912 26.5058 72.3505 27.115 73.3123 27.506C74.2742 27.897 75.3126 28.0592 76.3469 27.98C77.3811 27.9007 78.3833 27.5822 79.2753 27.0492V27.8553H82.5741V14.568H79.2753V15.3741C78.2342 14.7502 77.0448 14.4218 75.8333 14.4238ZM75.8333 17.7456C74.9205 17.7456 74.045 18.1108 73.3995 18.7608C72.754 19.4108 72.3913 20.2924 72.3913 21.2116C72.3913 22.1309 72.754 23.0125 73.3995 23.6625C74.045 24.3125 74.9205 24.6777 75.8333 24.6777C76.7462 24.6777 77.6217 24.3125 78.2672 23.6625C78.9127 23.0125 79.2753 22.1309 79.2753 21.2116C79.2753 20.2924 78.9127 19.4108 78.2672 18.7608C77.6217 18.1108 76.7462 17.7456 75.8333 17.7456ZM16.8519 14.5595H20.2155V15.3249C21.2908 14.7298 22.4987 14.4198 23.7257 14.4238C24.2591 14.4238 24.779 14.4806 25.2778 14.5884L24.4057 17.6336C24.1813 17.5924 23.9538 17.5717 23.7257 17.5716C21.7878 17.5716 20.2155 19.0421 20.2155 20.8553V27.151H16.8519V14.5595ZM43.8148 14.5595H46.9863V15.3249C47.9895 14.7329 49.1316 14.4218 50.2943 14.4238C51.22 14.4212 52.1355 14.6175 52.9797 14.9997C53.8239 15.3819 54.5774 15.9411 55.1898 16.64C55.8021 15.9413 56.5553 15.3823 57.3992 15.0001C58.2431 14.6179 59.1583 14.4214 60.0836 14.4238C63.6638 14.4238 66.5648 17.3035 66.5648 20.8553V27.151H63.3933V20.8553C63.3933 19.0421 61.912 17.5716 60.0844 17.5716C58.2569 17.5716 56.7756 19.0421 56.7756 20.8553V27.151H53.6041V20.8553C53.6041 19.0421 52.1228 17.5716 50.2952 17.5716C48.4676 17.5716 46.9863 19.0421 46.9863 20.8553V27.151H43.8148V14.5595Z" fill="white"/>
<path fill-rule="evenodd" clip-rule="evenodd" d="M89.2517 0L87.5665 3.06303C88.1563 3.05455 88.7562 3.20727 89.3048 3.53903C90.9276 4.52242 91.4837 6.69879 90.5467 8.40085C89.6089 10.1038 87.5336 10.6875 85.9108 9.70412C84.2871 8.72158 83.731 6.54436 84.6688 4.8423L87.3339 0H89.2517ZM80.8906 0.0220606H82.5514V10.1776H80.8906V0.0220606ZM86.1105 5.70691L86.1071 5.71285C85.6285 6.58254 85.9125 7.69406 86.7407 8.19552C87.5699 8.69782 88.6298 8.39915 89.1084 7.5303C89.587 6.66145 89.3022 5.54994 88.474 5.04764C87.6474 4.54703 86.5908 4.8423 86.1105 5.70691Z" fill="white"/>
</g>
<defs>
<clipPath id="clip0_3524_3815">
<rect width="91" height="28" fill="white"/>
</clipPath>
</defs>
</svg>
