<svg width="28" height="24" viewBox="0 0 28 24" fill="none" xmlns="http://www.w3.org/2000/svg">
<path d="M25.6129 0.872009C25.6129 0.872009 28.2031 -0.137991 27.9872 2.31487C27.9153 3.32488 27.2677 6.85988 26.7641 10.6835L25.0373 22.0099C25.0373 22.0099 24.8934 23.6692 23.5983 23.9578C22.3031 24.2463 20.3605 22.9478 20.0007 22.6592C19.7129 22.4428 14.6045 19.1963 12.8057 17.6092C12.3021 17.1763 11.7265 16.3106 12.8777 15.3006L20.4325 8.08635C21.2959 7.22062 22.1593 5.20061 18.5617 7.65348L8.48873 14.5071C8.48873 14.5071 7.33753 15.2285 5.17907 14.5792L0.502281 13.1363C0.502281 13.1363 -1.22453 12.0542 1.72543 10.972C8.92047 7.58128 17.7703 4.11842 25.6129 0.872009Z" fill="white" fill-opacity="0.4"/>
</svg>
