<svg width="151" height="36" viewBox="0 0 151 36" fill="none" xmlns="http://www.w3.org/2000/svg">
<g clip-path="url(#clip0_3522_3791)">
<mask id="mask0_3522_3791" style="mask-type:luminance" maskUnits="userSpaceOnUse" x="0" y="0" width="151" height="36">
<path d="M151 0H0V36H151V0Z" fill="white"/>
</mask>
<g mask="url(#mask0_3522_3791)">
<path d="M0 19.012H0.689564H27.5938V4.93945L0 19.012Z" fill="white"/>
<path d="M55.1856 19.0117H54.4962H27.5938V33.0843L55.1856 19.0117Z" fill="white"/>
<path d="M72.8112 15.2447V17.6181H61.1797V15.7414L68.5718 7.31112H61.3339V4.93945H72.6123V6.82139L65.1946 15.2516L72.8112 15.2447Z" fill="white"/>
<path d="M89.6672 4.93945L83.8886 17.6181H80.6341L74.8555 4.93945H78.136L82.3234 14.3422L86.6394 4.93945H89.6672Z" fill="white"/>
<path d="M93.6283 16.9528C92.564 16.4211 91.6794 15.6195 91.0745 14.6388C90.4491 13.618 90.1279 12.4572 90.1453 11.2789C90.127 10.1039 90.4482 8.94622 91.0745 7.92957C91.684 6.95246 92.5709 6.15472 93.6361 5.62611C94.7816 5.07969 96.0484 4.79492 97.3326 4.79492C98.6172 4.79492 99.8841 5.07969 101.03 5.62611C102.092 6.15631 102.976 6.95383 103.583 7.92957C104.21 8.94622 104.531 10.1039 104.513 11.2789C104.53 12.4572 104.209 13.618 103.583 14.6388C102.976 15.6201 102.089 16.4217 101.022 16.9528C99.8763 17.4991 98.6099 17.7839 97.3253 17.7839C96.0407 17.7839 94.7743 17.4991 93.6283 16.9528ZM100.19 14.1543C100.947 13.4267 101.325 12.4694 101.325 11.2824C101.325 10.0954 100.944 9.13639 100.182 8.40531C99.4124 7.70422 98.3828 7.31223 97.3116 7.31223C96.24 7.31223 95.2108 7.70422 94.4408 8.40531C93.6972 9.13288 93.3254 10.0907 93.3254 11.2789C93.3254 12.4671 93.6972 13.4244 94.4408 14.1508C95.2108 14.8519 96.24 15.2439 97.3116 15.2439C98.3828 15.2439 99.4124 14.8519 100.182 14.1508L100.19 14.1543Z" fill="white"/>
<path d="M118.45 6.1967C119.476 7.12951 119.99 8.51473 119.991 10.3524V17.6178H116.831V10.7319C116.831 9.62536 116.554 8.79048 115.999 8.22733C115.444 7.66413 114.653 7.3831 113.627 7.38429C112.466 7.38429 111.549 7.71253 110.876 8.36896C110.203 9.02543 109.867 9.97164 109.867 11.2076V17.6178H106.707V4.93916H109.709V6.57625C110.241 5.98535 110.921 5.52856 111.688 5.24698C112.54 4.93542 113.449 4.78217 114.363 4.79575C116.06 4.79575 117.423 5.26275 118.45 6.1967Z" fill="white"/>
<path d="M128.327 12.1802L125.98 14.279V17.6266H122.82V0H125.98V10.6375L132.524 4.9392H136.31L130.665 10.258L136.823 17.6179H132.994L128.327 12.1802Z" fill="white"/>
<path d="M140.124 16.9528C139.057 16.4222 138.17 15.6205 137.563 14.6388C136.937 13.618 136.617 12.4572 136.634 11.2789C136.615 10.1039 136.937 8.94622 137.563 7.92957C138.172 6.95246 139.06 6.15472 140.124 5.62611C141.27 5.07969 142.537 4.79492 143.821 4.79492C145.106 4.79492 146.372 5.07969 147.518 5.62611C148.583 6.15527 149.469 6.95287 150.079 7.92957C150.703 8.94709 151.021 10.1047 151 11.2789C151.02 12.4564 150.702 13.6171 150.079 14.6388C149.472 15.6201 148.585 16.4217 147.518 16.9528C146.372 17.4991 145.106 17.7839 143.821 17.7839C142.537 17.7839 141.27 17.4991 140.124 16.9528ZM146.685 14.1543C147.441 13.4267 147.82 12.4694 147.821 11.2824C147.822 10.0954 147.444 9.13639 146.685 8.40531C145.915 7.70422 144.886 7.31223 143.814 7.31223C142.743 7.31223 141.714 7.70422 140.944 8.40531C140.201 9.13288 139.829 10.0907 139.829 11.2789C139.829 12.4671 140.201 13.4244 140.944 14.1508C141.714 14.8519 142.743 15.2439 143.814 15.2439C144.886 15.2439 145.915 14.8519 146.685 14.1508V14.1543Z" fill="white"/>
<path d="M69.9213 22.3223V33.084H68.0719V32.0836C67.758 32.4476 67.3524 32.732 66.8917 32.9108C66.4004 33.0984 65.8739 33.1918 65.3434 33.1854C64.5984 33.1961 63.8635 33.0269 63.2079 32.694C62.5807 32.3703 62.0647 31.8848 61.7207 31.2947C61.3654 30.6532 61.1797 29.9404 61.1797 29.2169C61.1797 28.4934 61.3654 27.7806 61.7207 27.1391C62.0656 26.5494 62.5811 26.0641 63.2079 25.7398C63.863 25.4056 64.5984 25.2357 65.3434 25.2466C65.8525 25.242 66.3575 25.3305 66.8306 25.5073C67.2767 25.6778 67.6731 25.9465 67.9866 26.2908V22.3223H69.9213ZM66.8228 31.3367C67.1941 31.1367 67.4989 30.8428 67.7019 30.4884C67.9149 30.0926 68.0253 29.6552 68.0253 29.2117C68.0253 28.7681 67.9149 28.3308 67.7019 27.9349C67.4989 27.5805 67.1941 27.2867 66.8228 27.0866C66.4391 26.8914 66.0099 26.7892 65.5737 26.7892C65.1376 26.7892 64.7083 26.8914 64.3247 27.0866C63.9538 27.2862 63.6495 27.5802 63.4474 27.9349C63.2339 28.3304 63.1222 28.7679 63.1222 29.2117C63.1222 29.6554 63.2339 30.0929 63.4474 30.4884C63.6495 30.8431 63.9538 31.1371 64.3247 31.3367C64.7083 31.5319 65.1376 31.6341 65.5737 31.6341C66.0099 31.6341 66.4391 31.5319 66.8228 31.3367Z" fill="white"/>
<path d="M74.3727 25.3398H72.4453V33.0862H74.3727V25.3398Z" fill="white"/>
<path d="M85.0701 25.3399V31.9109C85.0701 34.637 83.5907 36.0001 80.6314 36.0001C79.8709 36.0038 79.1136 35.9091 78.3805 35.7186C77.7405 35.5627 77.1415 35.2834 76.6223 34.8983L77.4868 33.534C77.8919 33.8384 78.355 34.0675 78.8508 34.2092C79.3905 34.3772 79.9553 34.4628 80.5237 34.4627C81.4297 34.4627 82.0925 34.2698 82.5127 33.8838C82.9324 33.4979 83.1432 32.9079 83.1445 32.1138V31.708C82.8124 32.0484 82.4005 32.3113 81.942 32.4759C81.4457 32.6544 80.9174 32.7428 80.3864 32.7365C79.6487 32.747 78.9202 32.5854 78.2655 32.266C77.6488 31.9613 77.1342 31.5018 76.7783 30.9385C76.4075 30.3455 76.2186 29.6675 76.2318 28.9796C76.2127 28.2959 76.3965 27.6206 76.7619 27.0294C77.1182 26.4701 77.6328 26.0153 78.2487 25.7159C78.9051 25.4015 79.6332 25.2424 80.3695 25.2524C80.9251 25.246 81.4776 25.3398 81.9958 25.5288C82.4739 25.7059 82.8954 25.9955 83.2207 26.37V25.3399H85.0701ZM82.468 30.5869C82.6993 30.382 82.8818 30.1329 83.0027 29.8563C83.1235 29.5797 83.1801 29.2819 83.1687 28.9831C83.1783 28.6888 83.1208 28.396 82.9999 28.1245C82.879 27.8529 82.6975 27.6089 82.468 27.4089C81.9598 27.0153 81.322 26.8002 80.6642 26.8002C80.0059 26.8002 79.3682 27.0153 78.8604 27.4089C78.6305 27.6087 78.4489 27.8526 78.328 28.1243C78.2067 28.3959 78.1497 28.6888 78.1597 28.9831C78.1483 29.2819 78.2049 29.5797 78.3258 29.8563C78.4467 30.1329 78.6287 30.382 78.8604 30.5869C79.3663 30.9846 80.0045 31.2025 80.6642 31.2025C81.3234 31.2025 81.9616 30.9846 82.468 30.5869Z" fill="white"/>
<path d="M89.5255 25.3398H87.5977V33.0862H89.5255V25.3398Z" fill="white"/>
<path d="M97.0034 32.6641C96.7594 32.8459 96.4783 32.9792 96.1782 33.0559C95.8447 33.144 95.4998 33.1876 95.154 33.1853C94.248 33.1853 93.5491 32.9632 93.0573 32.519C92.5656 32.0747 92.3174 31.427 92.3137 30.5758V26.8469H90.957V25.397H92.3137V23.627H94.2357V25.397H96.4473V26.8469H94.2357V30.5321C94.2129 30.8442 94.3178 31.1528 94.5295 31.3943C94.6399 31.4979 94.7726 31.5779 94.9191 31.6292C95.0651 31.6805 95.2211 31.7018 95.3771 31.6917C95.7649 31.7045 96.1458 31.5922 96.4569 31.3733L97.0034 32.6641Z" fill="white"/>
<path d="M104.516 26.0724C105.157 26.6181 105.477 27.4424 105.479 28.5455V33.0842H103.661V32.1414C103.413 32.4888 103.061 32.7591 102.65 32.918C102.148 33.1079 101.611 33.199 101.07 33.1856C100.514 33.1974 99.9615 33.096 99.4511 32.8883C99.0191 32.7132 98.6477 32.4271 98.3804 32.0627C98.1304 31.708 98.0008 31.2902 98.009 30.8646C97.9976 30.5443 98.0661 30.226 98.2098 29.9353C98.353 29.6445 98.567 29.3895 98.8343 29.1908C99.3817 28.7699 100.249 28.5595 101.436 28.5595H103.565V28.444C103.565 27.9018 103.392 27.4856 103.048 27.1952C102.702 26.9049 102.191 26.7615 101.514 26.7615C101.051 26.7609 100.591 26.8294 100.15 26.9643C99.7371 27.082 99.3521 27.2739 99.0163 27.5293L98.2618 26.2087C98.7285 25.883 99.2563 25.6421 99.8174 25.4987C100.444 25.3316 101.093 25.2486 101.745 25.2521C102.949 25.2521 103.873 25.5255 104.516 26.0724ZM102.758 31.5537C103.127 31.3547 103.409 31.0385 103.553 30.6618V29.7628H101.565C100.449 29.7628 99.8917 30.1061 99.8917 30.7929C99.8872 30.9457 99.9228 31.0972 99.9953 31.2339C100.068 31.3706 100.175 31.4883 100.308 31.5765C100.65 31.7877 101.055 31.8895 101.464 31.8668C101.918 31.8758 102.365 31.7675 102.758 31.5537Z" fill="white"/>
<path d="M107.945 22.3223H109.873V33.084H107.945V22.3223Z" fill="white"/>
<path d="M74.3751 22.3223H72.4531V24.1307H74.3751V22.3223Z" fill="white"/>
<path d="M89.5235 22.3223H87.6016V24.1307H89.5235V22.3223Z" fill="white"/>
</g>
</g>
<defs>
<clipPath id="clip0_3522_3791">
<rect width="151" height="36" fill="white"/>
</clipPath>
</defs>
</svg>
