<svg width="32" height="32" viewBox="0 0 32 32" fill="none" xmlns="http://www.w3.org/2000/svg">
<path fill-rule="evenodd" clip-rule="evenodd" d="M8.86265 3.37305L7.34279 14.5682C7.21554 14.5375 7.08572 14.5123 6.95373 14.4931C4.57574 14.1471 2.37716 15.8624 2.04284 18.3242C1.70871 20.7861 3.3655 23.0623 5.7435 23.4083C8.12149 23.7544 10.3203 22.0391 10.6544 19.5772L12.1136 8.82853C12.1622 8.47137 12.426 8.18642 12.7684 8.12107L16.0077 7.5035C16.5511 7.39989 17.0326 7.87774 16.9557 8.44417L14.964 23.1155C14.8368 23.0847 14.7072 23.0596 14.5752 23.0403C12.1972 22.6943 9.99839 24.4097 9.66427 26.8715C9.32995 29.3334 10.9869 31.6097 13.3649 31.9556C15.7429 32.3016 17.9415 30.5864 18.2758 28.1245L21.9642 0.954967C22.0429 0.375656 21.5382 -0.106693 20.9868 0.0205427L9.48802 2.67183C9.15884 2.74772 8.90948 3.02715 8.86265 3.37305ZM26.8477 7.41401C28.3608 7.63422 29.7601 6.54269 29.9727 4.97598C30.1854 3.40936 29.131 1.96088 27.6179 1.74068C26.1045 1.52047 24.7054 2.61199 24.4926 4.17871C24.28 5.74532 25.3343 7.1939 26.8477 7.41401ZM25.5272 17.1397C27.0405 17.36 28.4396 16.2684 28.6524 14.7018C28.8651 13.1351 27.8107 11.6866 26.2974 11.4664C24.7842 11.2462 23.3849 12.3377 23.1723 13.9044C22.9597 15.4711 24.014 16.9196 25.5272 17.1397ZM27.3322 24.4276C27.1196 25.9942 25.7202 27.0857 24.2071 26.8656C22.6937 26.6454 21.6394 25.1969 21.852 23.6302C22.0648 22.0636 23.4639 20.9721 24.9773 21.1922C26.4904 21.4124 27.5448 22.8608 27.3322 24.4276Z" fill="white"/>
</svg>
