<svg width="32" height="32" viewBox="0 0 32 32" fill="none" xmlns="http://www.w3.org/2000/svg">
<path d="M27.6129 4.87299C27.6129 4.87299 30.2031 3.86299 29.9872 6.31585C29.9153 7.32586 29.2677 10.8609 28.7641 14.6845L27.0373 26.0109C27.0373 26.0109 26.8934 27.6702 25.5983 27.9588C24.3031 28.2473 22.3605 26.9488 22.0007 26.6602C21.7129 26.4438 16.6045 23.1973 14.8057 21.6102C14.3021 21.1773 13.7265 20.3116 14.8777 19.3016L22.4325 12.0873C23.2959 11.2216 24.1593 9.20159 20.5617 11.6545L10.4887 18.5081C10.4887 18.5081 9.33753 19.2295 7.17907 18.5802L2.50228 17.1373C2.50228 17.1373 0.775474 16.0552 3.72543 14.973C10.9205 11.5823 19.7703 8.11939 27.6129 4.87299Z" fill="white"/>
</svg>
