<svg width="33" height="32" viewBox="0 0 33 32" fill="none" xmlns="http://www.w3.org/2000/svg">
<path fill-rule="evenodd" clip-rule="evenodd" d="M2.46081 2.24942C0.164062 4.49885 0.164062 8.11923 0.164062 15.36V16.64C0.164062 23.8808 0.164062 27.5012 2.46081 29.7506C4.75756 32 8.45412 32 15.8472 32H17.1542C24.5473 32 28.2438 32 30.5406 29.7506C32.8373 27.5012 32.8373 23.8808 32.8373 16.64V15.36C32.8373 8.11923 32.8373 4.49885 30.5406 2.24942C28.2438 0 24.5473 0 17.1542 0H15.8472C8.45412 0 4.75756 0 2.46081 2.24942ZM5.67774 9.73341C5.8547 18.0534 10.1022 23.0534 17.549 23.0534H17.9711V18.2934C20.7075 18.56 22.7766 20.5201 23.6071 23.0534H27.4735C26.4116 19.2667 23.6207 17.1734 21.8781 16.3734C23.6207 15.3867 26.0712 12.9867 26.6566 9.73341H23.1441C22.3817 12.3734 20.1221 14.7734 17.9711 15V9.73341H14.4586V18.96C12.2804 18.4267 9.53044 15.8401 9.40792 9.73341H5.67774Z" fill="white" fill-opacity="0.4"/>
</svg>
